999
BYSOFT7 PART MODEL
0
SECTION
2
HEADER
9
$ACADVER
1
AC1014
9
$DWGCODEPAGE
3
ANSI_1252
9
$HANDSEED
5
10000
9
$MEASUREMENT
70
1
0
ENDSEC
0
SECTION
2
TABLES
0
TABLE
2
VIEW
5
1
100
AcDbSymbolTable
70
0
0
ENDTAB
0
TABLE
2
UCS
5
2
100
AcDbSymbolTable
70
0
0
ENDTAB
0
TABLE
2
STYLE
5
3
100
AcDbSymbolTable
70
1
0
STYLE
5
4
100
AcDbSymbolTableRecord
100
AcDbTextStyleTableRecord
2
STANDARD
70
0
40
0
41
1
50
0
71
0
42
2.5
3
txt
0
ENDTAB
0
TABLE
2
DIMSTYLE
5
5
100
AcDbSymbolTable
70
1
0
DIMSTYLE
105
6
100
AcDbSymbolTableRecord
100
AcDbDimStyleTableRecord
2
STANDARD
70
0
0
ENDTAB
0
TABLE
2
VPORT
5
7
100
AcDbSymbolTable
70
1
0
VPORT
5
8
100
AcDbSymbolTableRecord
100
AcDbViewportTableRecord
2
*ACTIVE
70
0
12
51.025
22
17
40
102.05
41
3.00147058824
0
ENDTAB
0
TABLE
2
APPID
5
9
100
AcDbSymbolTable
70
1
0
APPID
5
A
100
AcDbSymbolTableRecord
100
AcDbRegAppTableRecord
2
ACAD
70
0
0
ENDTAB
0
TABLE
2
LTYPE
5
B
100
AcDbSymbolTable
70
4
0
LTYPE
5
C
100
AcDbSymbolTableRecord
100
AcDbLinetypeTableRecord
2
BYBLOCK
70
0
72
65
73
0
40
0
0
LTYPE
5
D
100
AcDbSymbolTableRecord
100
AcDbLinetypeTableRecord
2
BYLAYER
70
0
72
65
73
0
40
0
0
LTYPE
5
E
100
AcDbSymbolTableRecord
100
AcDbLinetypeTableRecord
2
CONTINUOUS
70
0
72
65
73
0
40
0
0
LTYPE
5
F
100
AcDbSymbolTableRecord
100
AcDbLinetypeTableRecord
2
CENTERX2
70
0
72
65
73
0
40
0
0
ENDTAB
0
TABLE
2
LAYER
5
10
100
AcDbSymbolTable
70
5
0
LAYER
5
11
100
AcDbSymbolTableRecord
100
AcDbLayerTableRecord
2
0
70
0
62
7
6
CONTINUOUS
0
LAYER
5
12
100
AcDbSymbolTableRecord
100
AcDbLayerTableRecord
2
GEOMETRY
70
0
62
4
0
LAYER
5
13
100
AcDbSymbolTableRecord
100
AcDbLayerTableRecord
2
BENDLINE
70
0
62
2
0
LAYER
5
14
100
AcDbSymbolTableRecord
100
AcDbLayerTableRecord
2
ENGRAVING
70
0
62
3
0
LAYER
5
15
100
AcDbSymbolTableRecord
100
AcDbLayerTableRecord
2
CONSTRUCTION
70
0
62
8
0
ENDTAB
0
TABLE
2
BLOCK_RECORD
5
16
100
AcDbSymbolTable
70
2
0
BLOCK_RECORD
5
17
100
AcDbSymbolTableRecord
100
AcDbBlockTableRecord
2
*MODEL_SPACE
0
BLOCK_RECORD
5
18
100
AcDbSymbolTableRecord
100
AcDbBlockTableRecord
2
*PAPER_SPACE
0
ENDTAB
0
ENDSEC
0
SECTION
2
BLOCKS
0
BLOCK
5
19
100
AcDbEntity
100
AcDbBlockBegin
2
*MODEL_SPACE
70
0
10
0
20
0
0
ENDBLK
5
1A
100
AcDbEntity
100
AcDbBlockEnd
0
BLOCK
5
1B
100
AcDbEntity
100
AcDbBlockBegin
2
*PAPER_SPACE
70
0
10
0
20
0
0
ENDBLK
5
1C
100
AcDbEntity
100
AcDbBlockEnd
0
ENDSEC
0
SECTION
2
ENTITIES
0
LWPOLYLINE
5
1D
100
AcDbEntity
8
GEOMETRY
6
CONTINUOUS
100
AcDbPolyline
90
2
70
1
10
26.3
20
17
42
1
10
9.8
20
17
42
1
0
LWPOLYLINE
5
1E
100
AcDbEntity
8
GEOMETRY
6
CONTINUOUS
100
AcDbPolyline
90
5
70
1
10
0
20
0
10
0
20
34
10
51.025
20
34
10
102.05
20
34
10
102.05
20
0
0
ENDSEC
0
SECTION
2
OBJECTS
0
DICTIONARY
5
1F
100
AcDbDictionary
3
ACAD_GROUP
350
20
3
ACAD_MLINESTYLE
350
21
0
DICTIONARY
5
20
102
{ACAD_REACTORS
102
}
100
AcDbDictionary
0
DICTIONARY
5
21
102
{ACAD_REACTORS
102
}
100
AcDbDictionary
3
STANDARD
350
22
0
ENDSEC
0
EOF
