0
SECTION
2
ENTITIES
0
LINE
8
BARRA
10
0.000
20
0.000
11
6000.000
21
0.000
0
LINE
8
BARRA
10
6000.000
20
0.000
11
6000.000
21
100.000
0
LINE
8
BARRA
10
6000.000
20
100.000
11
0.000
21
100.000
0
LINE
8
BARRA
10
0.000
20
100.000
11
0.000
21
0.000
0
LINE
8
PIEZAS
10
10.000
20
0.000
11
2890.000
21
0.000
0
LINE
8
PIEZAS
10
2890.000
20
0.000
11
2890.000
21
100.000
0
LINE
8
PIEZAS
10
2890.000
20
100.000
11
10.000
21
100.000
0
LINE
8
PIEZAS
10
10.000
20
100.000
11
10.000
21
0.000
0
TEXT
8
TEXTO
10
1390.000
20
44.000
40
12.000
1
Larguero 2880
0
LINE
8
PIEZAS
10
2893.000
20
0.000
11
4143.000
21
0.000
0
LINE
8
PIEZAS
10
4143.000
20
0.000
11
4043.000
21
100.000
0
LINE
8
PIEZAS
10
4043.000
20
100.000
11
2993.000
21
100.000
0
LINE
8
PIEZAS
10
2993.000
20
100.000
11
2893.000
21
0.000
0
TEXT
8
TEXTO
10
3458.000
20
44.000
40
12.000
1
Diagonal 1250
0
LINE
8
PIEZAS
10
4146.000
20
0.000
11
5396.000
21
0.000
0
LINE
8
PIEZAS
10
5396.000
20
0.000
11
5396.000
21
100.000
0
LINE
8
PIEZAS
10
5396.000
20
100.000
11
4246.000
21
100.000
0
LINE
8
PIEZAS
10
4246.000
20
100.000
11
4146.000
21
0.000
0
TEXT
8
TEXTO
10
4711.000
20
44.000
40
12.000
1
Diagonal 1250
0
LINE
8
PIEZAS
10
5399.000
20
0.000
11
5759.000
21
0.000
0
LINE
8
PIEZAS
10
5759.000
20
0.000
11
5759.000
21
100.000
0
LINE
8
PIEZAS
10
5759.000
20
100.000
11
5399.000
21
100.000
0
LINE
8
PIEZAS
10
5399.000
20
100.000
11
5399.000
21
0.000
0
TEXT
8
TEXTO
10
5519.000
20
44.000
40
12.000
1
Tope 360
0
LINE
8
ZONA_MUERTA
10
5770.000
20
0.000
11
5770.000
21
100.000
0
LINE
8
ZONA_MUERTA
10
5770.000
20
0.000
11
6000.000
21
100.000
0
LINE
8
ZONA_MUERTA
10
5770.000
20
100.000
11
6000.000
21
0.000
0
ENDSEC
0
EOF
